<svg xmlns="http://www.w3.org/2000/svg" xmlns:xlink="http://www.w3.org/1999/xlink" width="800" zoomAndPan="magnify" viewBox="0 0 600 449.999984" height="600" preserveAspectRatio="xMidYMid meet" version="1.0"><defs><g/></defs><g fill="#ff3131" fill-opacity="1"><g transform="translate(18.950495, 261.150508)"><g><path d="M 42.558594 -1.578125 L 42.558594 -68.78125 C 42.558594 -73.367188 41.984375 -77.664062 38.402344 -81.964844 L 23.355469 -100.304688 C 22.210938 -101.308594 20.203125 -101.023438 19.34375 -100.019531 C 14.617188 -94.144531 9.171875 -87.695312 4.441406 -81.964844 C 1.003906 -77.808594 0 -73.367188 0 -68.78125 L 0 -1.578125 C 0 1.863281 4.441406 1.289062 4.441406 -1.578125 L 4.441406 -35.824219 L 38.117188 -35.824219 L 38.117188 -1.578125 C 38.117188 1.144531 42.558594 1.144531 42.558594 -1.578125 Z M 38.117188 -68.78125 L 38.117188 -40.121094 L 4.441406 -40.121094 L 4.441406 -68.78125 C 4.441406 -72.363281 5.445312 -76.519531 7.738281 -79.097656 L 21.351562 -95.433594 L 34.964844 -78.957031 C 37.257812 -76.519531 38.117188 -72.363281 38.117188 -68.78125 Z M 38.117188 -68.78125 "/></g></g></g><g fill="#ff3131" fill-opacity="1"><g transform="translate(88.445121, 261.150508)"><g><path d="M 18.773438 -34.246094 L 18.773438 -0.714844 C 18.773438 0.144531 23.355469 0.144531 23.355469 -0.714844 L 23.355469 -33.816406 L 38.402344 -52.445312 C 41.269531 -55.886719 42.84375 -61.332031 42.84375 -65.628906 L 42.84375 -98.730469 C 42.84375 -101.453125 38.402344 -101.308594 38.402344 -98.730469 L 38.402344 -65.914062 C 38.402344 -62.332031 37.398438 -57.746094 34.820312 -54.882812 C 30.234375 -49.4375 25.792969 -43.417969 21.207031 -37.828125 L 7.453125 -54.882812 C 5.300781 -57.605469 3.867188 -62.476562 3.867188 -65.914062 L 3.867188 -98.730469 C 3.867188 -101.023438 -0.574219 -101.167969 -0.574219 -98.730469 L -0.574219 -65.628906 C -0.574219 -61.332031 1.003906 -55.886719 3.726562 -52.445312 C 8.742188 -46.570312 13.757812 -40.121094 18.773438 -34.246094 Z M 18.773438 -34.246094 "/></g></g></g><g fill="#ff3131" fill-opacity="1"><g transform="translate(156.363609, 261.150508)"><g><path d="M 42.558594 -1.578125 L 42.558594 -68.78125 C 42.558594 -73.367188 41.984375 -77.664062 38.402344 -81.964844 L 23.355469 -100.304688 C 22.210938 -101.308594 20.203125 -101.023438 19.34375 -100.019531 C 14.617188 -94.144531 9.171875 -87.695312 4.441406 -81.964844 C 1.003906 -77.808594 0 -73.367188 0 -68.78125 L 0 -1.578125 C 0 1.863281 4.441406 1.289062 4.441406 -1.578125 L 4.441406 -35.824219 L 38.117188 -35.824219 L 38.117188 -1.578125 C 38.117188 1.144531 42.558594 1.144531 42.558594 -1.578125 Z M 38.117188 -68.78125 L 38.117188 -40.121094 L 4.441406 -40.121094 L 4.441406 -68.78125 C 4.441406 -72.363281 5.445312 -76.519531 7.738281 -79.097656 L 21.351562 -95.433594 L 34.964844 -78.957031 C 37.257812 -76.519531 38.117188 -72.363281 38.117188 -68.78125 Z M 38.117188 -68.78125 "/></g></g></g><g fill="#ff3131" fill-opacity="1"><g transform="translate(225.85824, 261.150508)"><g><path d="M 38.691406 -100.304688 L -2.007812 -100.304688 C -4.585938 -100.304688 -4.585938 -95.863281 -2.007812 -95.863281 L 16.191406 -95.863281 L 16.191406 -1.578125 C 16.191406 1.003906 20.777344 1.433594 20.777344 -1.578125 L 20.777344 -95.863281 L 38.691406 -95.863281 C 41.414062 -95.863281 41.414062 -100.304688 38.691406 -100.304688 Z M 38.691406 -100.304688 "/></g></g></g><g fill="#ff3131" fill-opacity="1"><g transform="translate(288.618458, 261.150508)"><g><path d="M 0 -79.671875 L 0 -70.070312 C 0 -58.609375 9.3125 -48.289062 21.496094 -48.289062 C 29.660156 -48.289062 38.976562 -41.269531 38.976562 -31.238281 L 38.976562 -20.347656 C 38.976562 -10.746094 30.953125 -3.007812 21.636719 -3.007812 C 12.324219 -3.007812 4.441406 -10.746094 4.441406 -20.347656 C 4.441406 -22.925781 0 -22.925781 0 -20.347656 C 0 -8.167969 10.175781 1.289062 21.636719 1.289062 C 33.246094 1.289062 43.417969 -8.167969 43.417969 -20.347656 L 43.417969 -31.238281 C 43.132812 -43.703125 32.816406 -52.734375 21.496094 -52.875 C 12.179688 -52.875 4.441406 -60.613281 4.441406 -70.070312 L 4.441406 -79.671875 C 4.441406 -89.273438 12.324219 -96.867188 21.636719 -96.867188 C 30.808594 -96.867188 38.691406 -89.558594 38.976562 -80.101562 C 38.976562 -77.523438 43.273438 -77.234375 43.417969 -80.101562 C 42.84375 -91.996094 32.957031 -101.308594 21.636719 -101.308594 C 9.886719 -101.308594 0 -91.851562 0 -79.671875 Z M 0 -79.671875 "/></g></g></g><g fill="#ff3131" fill-opacity="1"><g transform="translate(357.110084, 261.150508)"><g><path d="M 2.578125 -3.4375 C 2.578125 -1.578125 4.300781 0.144531 6.160156 0.144531 C 8.023438 0.144531 9.742188 -1.578125 9.742188 -3.4375 C 9.742188 -5.300781 8.023438 -6.878906 6.160156 -6.878906 C 4.300781 -6.878906 2.578125 -5.300781 2.578125 -3.4375 Z M 2.578125 -3.4375 "/></g></g></g><g fill="#ff3131" fill-opacity="1"><g transform="translate(395.216095, 261.150508)"><g><path d="M 42.558594 -21.351562 L 42.558594 -78.957031 C 42.558594 -90.847656 33.101562 -100.304688 21.207031 -100.304688 L 3.007812 -100.304688 C 1.433594 -100.304688 0 -99.160156 0 -97.582031 L 0 -2.867188 C 0 -1.433594 1.433594 0 3.007812 0 L 21.207031 0 C 33.101562 0 42.558594 -9.457031 42.558594 -21.351562 Z M 4.441406 -96.007812 L 21.207031 -96.007812 C 30.664062 -96.007812 38.257812 -88.414062 38.257812 -79.097656 L 38.257812 -21.351562 C 38.257812 -11.894531 30.664062 -4.15625 21.207031 -4.15625 L 4.441406 -4.15625 Z M 4.441406 -96.007812 "/></g></g></g><g fill="#ff3131" fill-opacity="1"><g transform="translate(464.424148, 261.150508)"><g><path d="M 35.679688 -100.304688 L 2.722656 -100.304688 C 1.144531 -100.304688 0 -99.589844 0 -97.726562 L 0 -21.636719 C 0 -10.03125 9.027344 0 21.0625 0 L 35.679688 0 C 38.832031 0 38.832031 -4.441406 35.679688 -4.441406 L 21.0625 -4.441406 C 12.035156 -4.441406 4.441406 -12.464844 4.441406 -21.636719 L 4.441406 -54.308594 L 34.105469 -54.308594 C 37.113281 -54.308594 37.113281 -58.75 34.105469 -58.75 L 4.441406 -58.75 L 4.441406 -96.007812 L 35.679688 -96.007812 C 38.546875 -96.007812 38.257812 -100.304688 35.679688 -100.304688 Z M 35.679688 -100.304688 "/></g></g></g><g fill="#ff3131" fill-opacity="1"><g transform="translate(527.327653, 261.150508)"><g><path d="M 0 -98.730469 L 0 -31.953125 C 0 -27.226562 1.578125 -21.925781 4.441406 -18.339844 C 9.601562 -12.464844 14.902344 -5.730469 20.0625 0.285156 C 20.921875 1.71875 23.070312 1.433594 23.929688 0.285156 L 39.261719 -18.339844 C 42.273438 -21.925781 43.847656 -27.226562 43.847656 -31.953125 L 43.847656 -98.730469 C 43.847656 -101.597656 39.261719 -101.453125 39.261719 -98.730469 L 39.261719 -31.953125 C 39.261719 -28.085938 38.257812 -23.644531 35.679688 -20.777344 C 31.09375 -15.332031 26.796875 -9.742188 22.210938 -4.15625 L 8.3125 -20.777344 C 5.730469 -23.5 4.300781 -28.085938 4.300781 -31.953125 C 4.300781 -57.746094 4.15625 -72.9375 4.15625 -98.730469 C 4.15625 -101.167969 0 -101.453125 0 -98.730469 Z M 0 -98.730469 "/></g></g></g></svg>