<svg xmlns="http://www.w3.org/2000/svg" xmlns:xlink="http://www.w3.org/1999/xlink" width="972" zoomAndPan="magnify" viewBox="0 0 729 322.499991" height="430" preserveAspectRatio="xMidYMid meet" version="1.0"><defs><g/><clipPath id="e3407b5c5b"><path d="M 0.5625 0 L 728.433594 0 L 728.433594 322 L 0.5625 322 Z M 0.5625 0 " clip-rule="nonzero"/></clipPath></defs><g clip-path="url(#e3407b5c5b)"><path fill="#ffffff" d="M 0.5625 0 L 728.4375 0 L 728.4375 329.488281 L 0.5625 329.488281 Z M 0.5625 0 " fill-opacity="1" fill-rule="nonzero"/><path fill="#ffffff" d="M 0.5625 0 L 728.4375 0 L 728.4375 322 L 0.5625 322 Z M 0.5625 0 " fill-opacity="1" fill-rule="nonzero"/></g><g fill="#ff3131" fill-opacity="1"><g transform="translate(83.885552, 201.587974)"><g><path d="M 42.492188 -1.574219 L 42.492188 -68.675781 C 42.492188 -73.253906 41.921875 -77.546875 38.34375 -81.835938 L 23.320312 -100.152344 C 22.175781 -101.152344 20.171875 -100.867188 19.316406 -99.863281 C 14.59375 -94 9.15625 -87.5625 4.433594 -81.835938 C 1 -77.6875 0 -73.253906 0 -68.675781 L 0 -1.574219 C 0 1.859375 4.433594 1.289062 4.433594 -1.574219 L 4.433594 -35.769531 L 38.058594 -35.769531 L 38.058594 -1.574219 C 38.058594 1.144531 42.492188 1.144531 42.492188 -1.574219 Z M 38.058594 -68.675781 L 38.058594 -40.058594 L 4.433594 -40.058594 L 4.433594 -68.675781 C 4.433594 -72.253906 5.4375 -76.402344 7.726562 -78.976562 L 21.316406 -95.285156 L 34.910156 -78.832031 C 37.199219 -76.402344 38.058594 -72.253906 38.058594 -68.675781 Z M 38.058594 -68.675781 "/></g></g></g><g fill="#ff3131" fill-opacity="1"><g transform="translate(153.272601, 201.587974)"><g><path d="M 18.742188 -34.195312 L 18.742188 -0.714844 C 18.742188 0.144531 23.320312 0.144531 23.320312 -0.714844 L 23.320312 -33.765625 L 38.34375 -52.363281 C 41.203125 -55.796875 42.777344 -61.234375 42.777344 -65.527344 L 42.777344 -98.578125 C 42.777344 -101.296875 38.34375 -101.152344 38.34375 -98.578125 L 38.34375 -65.8125 C 38.34375 -62.238281 37.34375 -57.660156 34.765625 -54.796875 C 30.1875 -49.359375 25.753906 -43.351562 21.175781 -37.769531 L 7.441406 -54.796875 C 5.292969 -57.515625 3.863281 -62.378906 3.863281 -65.8125 L 3.863281 -98.578125 C 3.863281 -100.867188 -0.574219 -101.007812 -0.574219 -98.578125 L -0.574219 -65.527344 C -0.574219 -61.234375 1 -55.796875 3.71875 -52.363281 C 8.726562 -46.5 13.734375 -40.058594 18.742188 -34.195312 Z M 18.742188 -34.195312 "/></g></g></g><g fill="#ff3131" fill-opacity="1"><g transform="translate(221.085953, 201.587974)"><g><path d="M 42.492188 -1.574219 L 42.492188 -68.675781 C 42.492188 -73.253906 41.921875 -77.546875 38.34375 -81.835938 L 23.320312 -100.152344 C 22.175781 -101.152344 20.171875 -100.867188 19.316406 -99.863281 C 14.59375 -94 9.15625 -87.5625 4.433594 -81.835938 C 1 -77.6875 0 -73.253906 0 -68.675781 L 0 -1.574219 C 0 1.859375 4.433594 1.289062 4.433594 -1.574219 L 4.433594 -35.769531 L 38.058594 -35.769531 L 38.058594 -1.574219 C 38.058594 1.144531 42.492188 1.144531 42.492188 -1.574219 Z M 38.058594 -68.675781 L 38.058594 -40.058594 L 4.433594 -40.058594 L 4.433594 -68.675781 C 4.433594 -72.253906 5.4375 -76.402344 7.726562 -78.976562 L 21.316406 -95.285156 L 34.910156 -78.832031 C 37.199219 -76.402344 38.058594 -72.253906 38.058594 -68.675781 Z M 38.058594 -68.675781 "/></g></g></g><g fill="#ff3131" fill-opacity="1"><g transform="translate(290.473007, 201.587974)"><g><path d="M 38.628906 -100.152344 L -2.003906 -100.152344 C -4.578125 -100.152344 -4.578125 -95.714844 -2.003906 -95.714844 L 16.167969 -95.714844 L 16.167969 -1.574219 C 16.167969 1 20.746094 1.429688 20.746094 -1.574219 L 20.746094 -95.714844 L 38.628906 -95.714844 C 41.347656 -95.714844 41.347656 -100.152344 38.628906 -100.152344 Z M 38.628906 -100.152344 "/></g></g></g><g fill="#ff3131" fill-opacity="1"><g transform="translate(353.136074, 201.587974)"><g><path d="M 0 -79.546875 L 0 -69.960938 C 0 -58.515625 9.300781 -48.214844 21.460938 -48.214844 C 29.617188 -48.214844 38.914062 -41.203125 38.914062 -31.191406 L 38.914062 -20.316406 C 38.914062 -10.730469 30.902344 -3.003906 21.605469 -3.003906 C 12.304688 -3.003906 4.433594 -10.730469 4.433594 -20.316406 C 4.433594 -22.890625 0 -22.890625 0 -20.316406 C 0 -8.15625 10.15625 1.289062 21.605469 1.289062 C 33.191406 1.289062 43.351562 -8.15625 43.351562 -20.316406 L 43.351562 -31.191406 C 43.066406 -43.636719 32.765625 -52.652344 21.460938 -52.792969 C 12.160156 -52.792969 4.433594 -60.519531 4.433594 -69.960938 L 4.433594 -79.546875 C 4.433594 -89.132812 12.304688 -96.71875 21.605469 -96.71875 C 30.761719 -96.71875 38.628906 -89.421875 38.914062 -79.976562 C 38.914062 -77.402344 43.207031 -77.117188 43.351562 -79.976562 C 42.777344 -91.851562 32.90625 -101.152344 21.605469 -101.152344 C 9.871094 -101.152344 0 -91.710938 0 -79.546875 Z M 0 -79.546875 "/></g></g></g><g fill="#ff3131" fill-opacity="1"><g transform="translate(421.521676, 201.587974)"><g><path d="M 2.574219 -3.433594 C 2.574219 -1.574219 4.292969 0.144531 6.152344 0.144531 C 8.011719 0.144531 9.730469 -1.574219 9.730469 -3.433594 C 9.730469 -5.292969 8.011719 -6.867188 6.152344 -6.867188 C 4.292969 -6.867188 2.574219 -5.292969 2.574219 -3.433594 Z M 2.574219 -3.433594 "/></g></g></g><g fill="#ff3131" fill-opacity="1"><g transform="translate(459.568699, 201.587974)"><g><path d="M 42.492188 -21.316406 L 42.492188 -78.832031 C 42.492188 -90.707031 33.050781 -100.152344 21.175781 -100.152344 L 3.003906 -100.152344 C 1.429688 -100.152344 0 -99.007812 0 -97.433594 L 0 -2.863281 C 0 -1.429688 1.429688 0 3.003906 0 L 21.175781 0 C 33.050781 0 42.492188 -9.441406 42.492188 -21.316406 Z M 4.433594 -95.859375 L 21.175781 -95.859375 C 30.617188 -95.859375 38.199219 -88.277344 38.199219 -78.976562 L 38.199219 -21.316406 C 38.199219 -11.875 30.617188 -4.148438 21.175781 -4.148438 L 4.433594 -4.148438 Z M 4.433594 -95.859375 "/></g></g></g><g fill="#ff3131" fill-opacity="1"><g transform="translate(528.66962, 201.587974)"><g><path d="M 35.625 -100.152344 L 2.71875 -100.152344 C 1.144531 -100.152344 0 -99.4375 0 -97.574219 L 0 -21.605469 C 0 -10.015625 9.011719 0 21.03125 0 L 35.625 0 C 38.773438 0 38.773438 -4.433594 35.625 -4.433594 L 21.03125 -4.433594 C 12.019531 -4.433594 4.433594 -12.449219 4.433594 -21.605469 L 4.433594 -54.226562 L 34.050781 -54.226562 C 37.054688 -54.226562 37.054688 -58.660156 34.050781 -58.660156 L 4.433594 -58.660156 L 4.433594 -95.859375 L 35.625 -95.859375 C 38.488281 -95.859375 38.199219 -100.152344 35.625 -100.152344 Z M 35.625 -100.152344 "/></g></g></g><g fill="#ff3131" fill-opacity="1"><g transform="translate(591.475751, 201.587974)"><g><path d="M 0 -98.578125 L 0 -31.90625 C 0 -27.183594 1.574219 -21.890625 4.433594 -18.3125 C 9.585938 -12.449219 14.878906 -5.722656 20.03125 0.285156 C 20.890625 1.71875 23.035156 1.429688 23.894531 0.285156 L 39.203125 -18.3125 C 42.207031 -21.890625 43.78125 -27.183594 43.78125 -31.90625 L 43.78125 -98.578125 C 43.78125 -101.4375 39.203125 -101.296875 39.203125 -98.578125 L 39.203125 -31.90625 C 39.203125 -28.042969 38.199219 -23.605469 35.625 -20.746094 C 31.046875 -15.308594 26.753906 -9.730469 22.175781 -4.148438 L 8.296875 -20.746094 C 5.722656 -23.464844 4.292969 -28.042969 4.292969 -31.90625 C 4.292969 -57.660156 4.148438 -72.824219 4.148438 -98.578125 C 4.148438 -101.007812 0 -101.296875 0 -98.578125 Z M 0 -98.578125 "/></g></g></g></svg>